<svg
            version="1.1"
            xmlns="http://www.w3.org/2000/svg"
            xmlns:xlink="http://www.w3.org/1999/xlink"
            x="0px"
            y="0px"
            width="552.014px"
            height="511.024px"
            viewBox="0 0 552.014 511.024"
          >
            <defs>
              <path
                id="a"
                d="M263.013.021c89.602-1.083 139.847 40.705 166.001 102.998 9.886 23.556 18.586 63.434 9.998 96-3.354 12.731-6.981 25.511-12 37.001-17.569 40.23-52.727 69.265-93.998 85.999-12.403 5.029-26.924 5.938-41.002 9-25.025 5.446-62.07-5.746-76.999-12-50.233-21.041-78.008-52.529-97.001-105-6.81-18.818-11.978-51.445-6-75.999l9-33c16.83-41.182 48.543-74.512 89.002-92.001 11.346-4.904 24.567-7.966 36.998-11 5.324-1.297 11.965.514 16.001-1.998zm16.001 9.998c-16.833-.292-28.642 2.19-41.002 5.001v.999c2.848 4.181 2.215 9.507 4.001 15 4.847 14.913 7.364 30.538 12 47.002 11.16 39.622 23.599 118.176 10.999 166.999-4.096 15.879-6.979 32.37-12.998 46.999-3.33 8.089-8.591 16.151-11.002 25.001 23.25 2.152 40.328 8.735 64.001 0 4.074-1.503 6.957-.51 9-4.001-7.601-6.239-9.922-20.255-13.999-30-11.179-26.708-15.998-57.428-16.001-96 .333-12.998.665-25.999 1.001-39 4.246-17.553 9.646-38.296 12-56 .774-5.831-13.314-17.629-16.001-24-6.954-16.491-4.2-39.122-1.999-58zm13.999 0c-6.248 12.895-12.03 35.362-3 50.001 2.522 4.088 7.104 7.216 10.001 11 .805-1.02.354-.273.998-2 4.273-5.697 9.475-30.785 12-39 1.208-3.927 3.881-13.549 3-15-5.531-3.591-16.666-2.743-22.999-5.001zm-67.001 7.001c-4.034 3.567-11.64 6.221-15.998 9 5.607 13.517 8.245 35.842 3 52.001-2.188 6.734-6.739 12.524-8.002 19.999 16.999 14.332 34.004 28.669 51 43.001v-6c-5.522-9.128-3.152-24.984-6-36-4.519-17.493-8.67-36.714-13.999-53.002-2.885-8.817-3.616-23.547-10.001-28.999zm91.001 37.001c19.642-1.115 25.909-14.751 37.999-23.002-1.021-.804-.272-.354-1.999-.998-5.615-5.271-16.874-9.813-25.999-11.001-2.861 11.456-9.172 20.699-10.001 35.001zm-55.999-32.002c12.892 9.581 7.792 23.692 3.998 37h-.998v-1c-10.961-7.282-8.288-25.274-3-36zm-62.002 8.002c-8.436 7.792-26.427 11.921-28.999 24.998 9.12 9.955 13.137 28.148 27 33 1.985-6.046 6.262-11.479 7.999-18 3.794-14.229-1.435-28.988-3.998-39.999l-2.002.001zm-6 7.999c9.557 8.785 8.334 28.247-1.999 35v1h-1.001v-1c-12.777-11.851-3.046-25.294 3-35zm169.001 0c-6.834 10.26-21.003 19.102-33 24-4.601 1.879-12.003 1.047-16.001 4.001-3.393 2.504-2.653 13.429-3.998 18-4.969 16.868-8.64 36.865-10.001 57h1.001c4.716-7.009 13.246-11.923 19.999-17.002 15.371-11.553 33.63-29.375 45-45 6.035-8.294 14.28-15.458 16.001-27.999-6.442-4.611-9.071-11.467-19.001-13zm27 22.001c-6.365 20.212-30.649 42.347-45 55.999-5.098 4.852-14.321 9.068-16.999 16.001 18.902.666 43.249 13.061 63 6.999 9.19-2.82 15.011-8.973 21-15 5.108-5.138 9.56-8.994 9.998-18.998-11.481-15.16-15.85-34.559-31.999-45.001zm-228 .998c-9.442 14.414-28.189 27.883-28.999 50.001 11.992 15.625 23.264 35.537 54.998 27.999 4.901-1.162 12.278-2.744 17.002-3.999 7.876-2.092 19.053-.712 24.998-5.002-15.371-9.229-41.512-31.874-51.998-45.998-3.884-5.23-10.892-20.329-16.001-23.001zm66 15c11.986 5.64 18.597 18.545 12 34h-1.999c-2.629-3.463-7.565-5.457-10.001-9-1.486-2.16-1.307-4.235-3-6-.223-8.307.753-13.676 3-19zm46.999 1.001c14.152 4.596 7.647 24.273 3 33-.665-.333-1.334-.665-1.999-1.001-7.339-11.967-7.369-19.028-1.001-31.999zm42 28.001c.415-19.091 7.328-16.554 17.002-25.001 1.754.63.971.194 1.999 1.001 1.748 2.643 1.126 9.693 1.001 13.999-5.817 4.219-10.593 9.166-20.002 10.001zm-156-19.001c2.468 1.296.682-.428 2.002 2 3.035 3.229 3.153 8.476 3 15-4.956 5.403-7.353 13.331-15 16.001v-1.999c-10.301-12.443 4.11-25.016 9.998-31.002zm231 1.001c2.075.371 1.926.24 3 .999 11.008 3.243 14.07 16.953 11.002 31h-1.001c-4.269-4.467-9.502-8.776-13.999-13.001l.998-18.998zm-12.998 15.998c3.892 5.711-.777 15.77-2.002 20.002-5.992 2.845-10.598 4.942-19.999 4.999v-1.999l4.001-12c4.205-6.276 11.796-6.603 18-11.002zm-181.001 27c-16.874-1.649-23.016-10.475-25.999-25.999h6c2.732 2.06 7.05 1.997 9.998 4.001 5.695 3.864 9.028 13.48 10.001 21.998zm-75 23.002c11.768.458 22.216-2.779 25.001-11.001-9.153-3.254-12.603-14.58-22.001-18-.766 10.319-4.235 17.792-3 29.001zm309 28.999c2.705-21.117-1.115-41.76-4.999-58.001h-1.001v1.001c-6.665 4.279-11.189 11.749-18 16.001-7.838 4.893-21.821 5.82-28.999 10.999 2.574 2.002 3.019 4.348 4.999 7.001 9.592 12.854 25.82 22.794 48 22.999zm-210-40.001l-42 8.001c-6.333-.668-12.668-1.333-19.001-2.001-5.364 1.137-8.935 6.496-12.998 9-7.298 4.495-17.594 6.019-27 8.001v12.998c3.008 5.182 1.257 13.83 3 20.002 3.376 11.97 13.104 45.548 21.998 49.999 20.754-32.817 84.767-25.241 106.001-55.001 10.263-14.383 3.357-38.457-7.999-45.998-5.13-3.408-14.362-4.606-22.001-5.001zm102 0c-8.899 6.21-16.74 5.302-22.999 15-6.846 10.604-5.23 25.816.998 35.001 15.169 22.364 49.754 22.625 76.001 33.999 6.843 2.967 14.938 7.617 21 12 3.84 2.779 6.485 7.844 10.999 10 1.41-4.685 5.034-8.217 7.001-12 6.338-12.188 10.854-26.293 13.001-42-1.086-.908-.085.079-1.001-1.001-17.384-.613-39.017-10.246-46.999-21-5.343-7.195-8.563-16.012-16.001-21-9.995-6.703-26.051-8.765-42-8.999zm-1.001 9c2.468 1.295.682-.428 2.002 2.001 10.451 11.155-3.695 26.7-8.002 33h-1.999c-7.241-22.074-3.341-20.642 7.999-35.001zm43.001 29.002c-14.886-.927-20.561-11.97-19.999-29.001h1.999c11.007 8.432 18.387 8.41 18 29.001zm39-29.002c14.223.024 17.948 7.129 25.001 14.001v1.999c-6.193.911-14.689 3.889-20.002 0-7.028-1.868-10.214-7.895-12.998-13.999 2.69-.22 6.248-.73 7.999-2.001zm-178.001 1.001h3c3.316 3.382 7.263 4.915 9 10.001 3.944 4.847 2.023 18.709 0 24-1.083-.911-.084.077-.998-1.001-13.293-6.442-13.562-16.732-11.002-33zm-79.999 28.001c.3-3.594 1.187-7.794 3-10.001 2.907-9.308 12.685-11.127 22.999-13v7c-1.475 1.811-2.343 4.399-3 7.001-6.763 4.42-11.574 8.719-22.999 9zm57-14.002c2.31 2.55 1.724 4.816 1.001 8.001-3.434 15.12-6.952 18.99-20.002 24v-5.002c-7.053-12.872 13.083-22.51 19.001-26.999zm145.999 21c7.991.02 12.764 2.447 19.001 4.001v1.999c-3.519 2.67-7.768 6.821-10.999 10.001-7.331.538-19.669 1.069-23.002-4.999 3.494-3.24 7.672-6.567 11.002-10.001 2.326-.197 2.825-.194 3.998-1.001zm60 32.002c-18.87.071-21.262-10.89-25.999-25.001h7.001c10.675 8.062 16.975 7.413 18.998 25.001zm-237.998-2.002c-18.093.439-26.604-7.216-30-21h10.999c9 6.229 17.294 7.413 19.001 21zm87-9.998c-15.453 29.875-61.86 47.927-51 96.998 6.752 4.44 11.122 7.956 22.999 8.002 10.063-17.714 17.725-36.595 24-59.002l1.999-18c1.38-5.921 5.422-22.282 2.002-27.998zm39.998 9.998c-.854 28.118 6.706 52.62 15 72 3.377 7.888 5.569 21.396 16.001 22.001l10.999-4.001c3.017-2.028 4.497-6.384 7.001-9 .54-32.547-16.985-47.923-33-63.998-5.468-5.49-9.365-12.696-16.001-17.002zm-69 3c-5.675 4.156-14.386 3.687-21.998 6-17.943 5.457-52.631 14.814-56.002 33 5.294 3.761 9.06 10.803 13.001 16.001 4.985 6.575 23.307 20.548 31.999 22.999v-15.998c4.298-6.685 5.484-19.598 10.001-27 7.576-12.417 19.214-22.066 25.999-35.001l-3-.001zm89.002 0c9.905 15.824 25.235 27.649 33 46 1.783 4.217 5.054 31.691 6.998 33 3.114-3.896 7.847-5.078 12-7.999 8.487-5.967 28.348-24.403 29.002-37.001-20.165-18.447-47.258-29.386-81-34zM205.012 242.02v3c-14.67 11.689-10.345 12.061-33.998 10.001v-2.002h.998c4.173-12.671 19.211-13.018 33-10.999zm151.001-1.999c12.161-.475 23.296 3.311 25.001 12.998-6.393 1.438-9.808 3.811-18 4.001-5.064-4.794-11.498-7.611-14.002-15h2.002c1.006-.693 3.998-1.288 4.999-1.999zm-22.999 45.998c-14.468-1.805-21.221-13.342-21-30 1.083-.908.085.079.998-.998 13.465 5.902 21.568 12.772 20.002 30.998zm-93-28.999h1.999c.45 20.945-6.27 25.746-19.999 31.999v-6c-7.099-12.052 13.064-21.57 18-25.999zm33 13.999c11.566 3.734 13.252 18.065 9.998 31.001-2.323 1.617-4.896 5.25-6.998 4.001-11.476-7.623-9.398-24.387-3-35.002zm-12 126h3c-.731 5.728-4.713 7.378-6 11.002-.581 1.626 1.636 10.404 1.999 12 3.055 13.413-2.52 28.355-9 33-18.327 13.135-49.601 5.656-49.001-20.002 5.629-6.117 7.527-12.466 18-13.999.911 1.083-.076.085 1.001 1.001v1.999c-10.462 3.115-10.767 15.257-7.999 25.999 2.716 1.809 3.543 3.777 6.998 5.002 4.252 3.406 14.277 1.812 20.002.998 8.681-10.952 13.197-17.271 9-37.999h-4.001c-12.439 8.395-23.138-6.758-27-10.999-2.465-32.23 27.698-39.493 40.999-59.002 1.085.911.085-.076 1.001 1.001.666.333 1.333.666 1.999 1.001-4.655 7.852-10.44 44.615-3 54.998v-.998c1.495-1.625 1.552-2.024 2.002-5.002zM110.013 350.02c-1.863 22.165-8.973 43.285-9 69-.014 12.227-2.179 27.598 9 28.999 2.91-4.71 8.083-9.411 10.001-15 5.863-17.092 2.711-29.427 27-28.999 2.512 3.747 3.974 4.066 3.998 10.999-2.967 2.927-4.617 7.522-7.999 10.001-2.665 1.953-12.586 5.845-13.999 7.999v5.002c1.104 1.383 1.492 2.872 1.999 4.999 1.999 1.667 4.001 3.333 6 4.999h7.999c6.385-6.804 11.637-11.795 16.001-21 1.083.911.084-.076 1.001 1.001.75 1.072.6.946.998 3-3.867 4.151-5.591 10.424-9 15-3.005 4.036-8.367 5.577-12 9-4.331-.332-8.667-.665-12.998-1.001-.965-1.546-9-13.396-10.001-13.999-1.803 7.32-6.573 10.43-10.999 15-3.333-.332-6.668-.665-10.001-1.001-11.463-17.765-5.662-51.204-1.001-72.998h-.998v1.999c-2.474 3.382-2.212 7.647-4.001 12-6.243 15.191-12.253 32.545-18 48-2.16 5.813-2.171 12.022-6 16.001-1.178-.805-1.68-.774-4.001-1.001-2.675-28.025-12.114-54.452-18-81h-.998v3c3.112 4.672 1.031 19.17.998 25.999-.098 20.883-5.252 39.47-18 48-4.345 2.91-12.155 7.039-18 3-5.97-1.601-6.463-5.244-9.998-9-.376-14.154 6.69-24.851 16.999-27.998.908 1.083-.079.085 1.001.998-5.005 7.424-10.847 10.004-11.002 23.002 2.667 2.866 2.716 5.484 7.001 6.998 1.838 1.238 5.703 1.091 9 1.001 5.073-4.857 11.002-8.021 13.999-15 10.028-23.348 3.979-58.232 2.002-85.001 3.333-.665 6.666-1.333 9.998-1.999.911 1.083-.076.085 1.001 1.001 6.998 30.33 14.002 60.668 21 90.998h1.001c.821-7.009 4.808-13.214 6.998-18.998 6.576-17.354 11.296-34.78 18-51 3.169-7.667 2.84-21.385 13.001-22.001zm319.999 18c-.251 10.929-.971 23.695-.998 36h7.999c-.371 2.075-.243 1.926-1.001 3-1.549 1.05-4.085 1.031-6.998 1.001.575 19.317 1.637 38.769-10.001 45.998-19.05 11.837-47.64 3.811-46.999-21 .75-1.071.6-.943.998-3 5.604-4.396 7.819-9.733 17.002-10.999.908 1.083-.079.085.998 1.001v1.999c-8.831 2.261-10.404 10.421-9.998 22.001 3.188 3.423 3.96 7.249 9 9 6.021 4.891 17.518.564 22.999-1.001 7.418-12.477 7.08-23.463 7.001-43.999h-12v-2.002c2.834-1.972 6.595-2.151 12-1.999-.112-13.489 1.132-25.751 1.999-37.001h-1.999c-7.252-5.097-46.975-9.897-51 0-.963 1.419-.977 3.275-1.001 6 1.514 1.413 2.209 2.766 4.001 4.001 6.739 5.49 17.703-.166 22.999-1.999v3c-1.768.96-1.68 1.258-4.001 1.999-7.713 6.598-23.443 1.874-25.999-6-3.376-4.109-1.208-9.368 0-13.999 22.772-15.545 35.673-2.346 61.001 0 1.852-5.408 6.341-6.531 9.998-10.001 4.323-.063 7.909.36 11.002 1.001l.998 3c1.757 2.562.641 6.191 0 9-5.124 3.002-9.403 4.933-18 4.999zm8.002-15c-2.776 2.962-4.748 4.225-6 9h3.998c4.991 3.554 9.082-1.287 9-7.001-2.416-1.301-2.834-1.8-6.998-1.999zm-190.001 7.999c-12.447 18.406-25.222 15.02-21 47.002 2.389 1.555 2.924 2.921 6 3.998 3.265 2.785 11.73 2.725 15 0 .802-1.178.772-1.68 1.001-3.998-6.341-10.239 1.628-41.687-1.001-47.002zm259.001 0h3.998c.854 1.462 1.813 2.869 3 4.001.011 31.778-15.052 49.816-7.999 82.001h4.001c3.101-5.119 9.106-11.201 10.999-17.002v-18.998c.03-17.023 1.334-44.536 13.999-49.001 1.181-.802 1.683-.771 4.001-1.001 2.1 3.949 2.125 10.351 1.999 17.002-2.705 4.184-1.506 10.558-3 15.998-5.046 18.385-9.586 30.325-4.999 52.001 1.517.535 1.693.674 4.001 1.001 3.172-5.078 8.935-15.799 12.998-20.002 1.022.805.275.354 2.002 1.001v1.999c-7.937 8.916-6.957 25.034-24 25.001-1.508-2.515-4.036-4.937-5.002-7.999-1.249-3.968-.044-8.064-1.999-11.002v1.001c-6.393 7.162-6.175 17.992-19.999 18-.987-1.601-3.237-2.626-4.001-4.001-2.441-4.388-1.099-11.258-4.001-15v2.002c-4.511 5.037-4.896 13.492-12 15.998-2.561 1.757-6.19.642-9 0-1.143-2.806-2.105-8.615-3.998-10.999v1.999c-5.638 5.799-5.7 10.195-18 10.001-1.022-.805-.275-.354-2.002-1.001-1.555-2.517-4.181-5.989-4.999-9-2.291-8.433 1.544-37.985 4.999-39.998 1.418-.963 3.275-.977 6-1.001.56 1.604.802 2.403 1.001 4.999-4.57 6.993-2.866 30.196-1.001 38.002 2.474.483 3.685.862 7.001.998 2.515-3.936 6.36-8.144 7.999-12.998 1.001-10.001 2.002-20.002 3-30h2.002c1.293-.878 2.466-.895 4.999-1.001.6 1.724.889 3.153 1.001 6-3.322 5.259-2.1 29.185-2.002 37.999 1.517.537 1.694.677 4.001 1.001 3.72-6.516 9.843-13.301 12-21 2.896-10.345-2.727-20.885 0-33 3.3-14.657 4.593-25.105 13.001-34.001zm.998 6c-2.136 5.193-8.321 33.194-3.998 40.001.66-7.885 9.278-34.89 3.998-40.001zm27 0c-1.448 6.595-8.163 35.335-3.998 42 .592-6.74 9.851-38.013 3.998-42zm-255 37.001l-.998 13.999h.998v-.998c4.579-4.271 9.488-8.594 14.002-13.001 3.333.333 6.665.666 9.998 1.001 5.522 11.641 1.179 28.276 1.001 43.999h4.001c4.184-7.29 9.169-14.089 12.998-22.001 1.085.911.085-.076 1.001 1.001.753 1.072.6.946 1.001 3-3.324 3.608-4.287 8.695-7.001 13.001-2.638 4.181-6.671 7.483-10.001 10.999h-7.999c-.854-1.459-1.811-2.866-3-4.001-.114-15.4 2.845-25.952 3-40.999-2.092-1.121-1.833-1.435-4.999-1.999-15.188 14.438-15.333 14.302-15 43.999-3.243 2.046-4.034 2.986-10.001 3 .082-15.079 1.923-31.582 1.999-49.001 2.67-1.44 4.222-1.994 9-1.999zm-144 4.001c-4.246 6.388-7.772 10.888-7.999 21.998h1.999c1.985-2.582 4.424-2.973 7.001-4.999 2.427-1.909 3.717-5.839 6-7.999v-7.001a878.675 878.675 0 01-3-1.001c-1.178-.802-1.68-.772-4.001-.998zm33 9h31.001v4.999h-31.001v-4.999zm161.002 0h30.998v4.999h-30.998v-4.999zm-208.001 54c2.076.371 1.925.24 3 .998 2.067 3.153 1.129 12.071 1.001 17.002h.998c2.152-3.482 5.174-7.109 10.001-8.002v1.001c-2.866 2.569-6.125 5.438-7.001 10.001 3.385 2.16 6.636 5.875 8.002 9.998h-4.001l-7.001-9.998h-.998c.082 3.805-.145 7.568-1.001 9.998h-3v-30.998zm307.999 0c2.075.371 1.926.24 3 .998 1.729 3.009-.019 8.038 3 10.001 2.562-1.756 6.194-.641 9 0v1.999c2.174 3.322 1.132 12.859 1.001 18-2.075-.37-1.926-.239-3-.998-1.961-2.98-1.129-11.28-1.001-16.001-2.28-1.225-2.25-1.639-6-1.999-2.192 4.127-2.124 11.122-1.999 18-1.083.908-.084-.079-1.001.998h-3v-30.998zm-285.998 6h-4.001c.294-2.329.453-2.479 1.001-4.001 1.753.63.971.194 1.999 1.001.753 1.072.6.944 1.001 3zm144-4.001c2.945 2.06 3.098 2.163.998 4.999h-.998c-2.659-2.138-1.249-2.698 0-4.999zm-215.002 1.001h5.002c1.753 7.176 6.017 12.767 7.999 19.999 1.083-.908.084.079 1.001-1.001 4.263-5.885 3.513-18.335 12.998-18.998v27c-1.083.908-.084-.079-.998.998h-3v-21h-1.001v2.002c-3.657 4.083-6.518 13.29-7.999 18.998-1.085-.908-.084.079-1.001-.998-3.761-4.184-6.578-12.954-7.999-19.001h-1.001v19.001c-1.083.908-.084-.079-1.001.998-1.753-.63-.971-.19-1.999-.998-3.141-4.885-1.135-19.948-1.001-27zm125.002 0h4.999c1.737 7.307 6 12.873 7.999 19.999 1.085-.908.085.079 1.001-1.001 4.333-5.983 3.316-18.327 13.001-18.998v27c-1.085.908-.084-.079-1.001.998h-3v-21h-1.001v2.002c-3.657 4.083-6.516 13.29-7.999 18.998-1.083-.908-.084.079-1.001-.998-3.758-4.184-6.575-12.954-7.999-19.001h-1.001v19.001c-1.083.908-.084-.079-.998.998-1.756-.63-.974-.19-2.002-.998-3.141-4.885-1.132-19.948-.998-27zm156 1.999v25.999c-2.075-.37-1.926-.239-3-.998-2.927-4.535-1.135-18.376-1.001-25.001h-7.001v-1.999h19.001v1.999h-7.999zm69 4.999h3.998v2.002h-3.998v15c1.456.786 3.729 1.898 4.999 3h-1.001c-1.293.876-2.466.895-4.999.998-2.285-4.312-2.124-11.894-1.999-18.998h-3v-2.002h3v-3.998c.998-.668 1.999-1.333 3-2.002v6zm-316.001 0h9c.908 1.086-.079.085 1.001 1.001.733 5.722 1.143 13.351 0 19.001h-2.002c-2.67 1.844-7.113.663-9.998 0-1.555-3.437-1.702-3.94-1.001-8.002 4.677-1.865 9.636-2.264 10.001-9-1.604-.556-2.405-.799-5.002-.998-1.287 2.542-1.096 2.872-3.998 3.998v-.998h-1.001c1.001-1.667 1.999-3.335 3-5.002zm33 0h4.001c.125 6.721.745 15.917-1.001 21-1.753-.63-.971-.19-1.999-.998-2.389-3.668-1.132-14.439-1.001-20.002zm21 21V485.02c-2.542-1.371-3.504-1.917-7.999-1.999-1.574 4.609-1.077 12.797-1.001 18.998-2.076-.37-1.925-.239-3-.998-2.067-3.152-1.129-12.07-1.001-17.002.805-1.02.354-.272 1.001-1.999h1.999c2.152-1.438 7.309-1.112 11.002-1.001l.998 2.002c2.774 3.516 2.157 11.641 2.002 18-1.085.908-.084-.079-1.001.998h-3zm22.001-18.998c-.335 3.333-.668 6.666-1.001 9.998-3.813.77-6.611 1.419-9 2.002-.333.666-.666 1.334-1.001 1.999h1.001c6.265 3.51 13.044-1.355 13.999 7.999-.805 1.023-.354.275-.998 2.002-1.909 1.062-4.465 2.474-6 3.998-4.323.063-7.909-.359-11.002-.998-.597-1.727-.889-3.152-.998-6 3.728-3.03 1.699-2.255.998-8.002 1.52-1.02 1.969-1.497 3-3-2.995-2.075-3.114-3.706-3-9 3.393-2.138 4.686-3.054 11.002-3 1.658.829 2.585.24 6 0v2.002h-3zm61.999 6l-12 .998c-.556 1.604-.799 2.406-1.001 5.002 2.512 2.267 2.487 3.303 7.001 3.998 1.999-1.666 4.001-3.332 6-4.999v3c-2.032 1.896-1.868 2.872-4.999 4.001-5.059 3.45-8.597-1.62-11.002-4.001-.166-5.948-.115-7.519 1.001-13.001 3.393-2.138 4.686-3.054 10.999-3 1.022.805.275.354 2.002 1.001.736 3.024 1.462 3.526 1.999 7.001zm6-8.002h9c.908 1.086-.079.085 1.001 1.001.733 5.722 1.143 13.351 0 19.001h-2.002c-2.67 1.844-7.113.663-9.998 0-1.555-3.437-1.702-3.94-1.001-8.002 4.677-1.865 9.636-2.264 10.001-9-1.604-.556-2.405-.799-5.002-.998-1.287 2.542-1.096 2.872-3.998 3.998v-.998h-1.001c1.001-1.667 1.999-3.335 3-5.002zm31.001 21c-2.075-.37-1.926-.239-3-.998-2.285-3.782.338-13.249-2.002-17.002-1.415-.96-3.272-.976-6-.998-1.486 4.355-1.075 12.071-.998 18-1.085.908-.084-.079-1.001.998h-3v-18.998l3-1.001c2.904-2.004 8.91-.709 12 0v1.999c2.174 3.322 1.132 12.859 1.001 18zm4.999-21h3v21h-3v-21zm24 21c-2.075-.37-1.926-.239-3-.998-2.285-3.782.338-13.249-1.999-17.002-1.418-.96-3.275-.976-6-.998-1.489 4.355-1.077 12.071-1.001 18-1.083.908-.084-.079-1.001.998h-3v-18.998l3-1.001c2.907-2.004 8.913-.709 12 0v1.999c2.174 3.322 1.132 12.859 1.001 18zm7.999-3.998l12 .998c1.304 2.419 1.803 2.834 2.002 7.001-.805 1.021-.354.273-1.001 1.999-5.305 1.708-9.155 3.391-16.001 2.002-1.121-2.092-1.435-1.833-1.999-5.002 5.569-5.828-.068-3.434 1.001-7.999.221-.946 2.378-1.969 3-4.001-2.574-1.977-2.902-3.373-3-7.999 3.472-3.3 4.497-4.188 12-4.001 1.797.89 1.809.3 4.999 0v2.002c-4.355 1.653-.905 6.47-4.999 9.998-2.629 1.929-5.087.979-7.001 2.002-.753 1.072-.599.944-1.001 3zm45-17.002c3.333.336 6.668.669 10.001 1.001.963 1.768 1.258 1.681 1.999 4.001 3.257 4.734.313 9.074-.998 13.999-3.412 1.007-4.813 1.926-10.001 1.999-1.896-2.028-2.872-1.868-4.001-4.999-4.679-5.626.324-12 3-16.001zm31.001 2.002v7.999c-3.764 2.294-6.554 3.117-10.001 4.001l-.998 1.999h.998c4.686 2.684 10.672-.294 13.001 4.999 2.553 4.789-3.227 6.502-6 9-4.322.063-7.909-.359-10.999-.998-.651-1.257-1.091-2.072-2.002-3 1.214-2.446 2.632-3.856 4.001-6-1.937-1.669-1.669-1.439-1.999-5.002 1.519-1.02 1.966-1.497 3-3-2.994-2.075-3.117-3.706-3-9 3.393-2.138 4.683-3.054 10.999-3 1.661.829 2.586.24 6 0v2.002h-3zm19.999 6c-4.331.666-8.667 1.334-12.998 1.999v1.999c.796.982 1.445 2.744 1.999 4.001 6.371 2.744 7.903-1.137 10.999-1.999h1.001c-1.309 2.986-1.745 4.734-4.999 6-1.549 1.048-4.086 1.031-7.001.998-3.336-4.601-9.387-16.412 0-19.999 1.69-1.143 4.896-1.066 7.999-1.001 1.838 2.92 2.741 2.905 3 8.002zm51 0l-12 .998c-.557 1.604-.799 2.406-.998 5.002 2.728 2.479 2.741 3.587 7.999 3.998 1.358-2.124 2.891-3.621 4.999-4.999v3c-2.029 1.896-1.868 2.872-4.999 4.001-5.059 3.45-8.594-1.62-10.999-4.001-.082-4.844.275-9.475.998-13.001 3.393-2.138 4.686-3.054 11.002-3 1.021.805.272.354 1.999 1.001.895 3.076 1.584 2.959 1.999 7.001zm15-8.002c-.292 2.329-.45 2.479-.998 4.001-2.282-1.225-2.253-1.639-6-1.999-1.574 4.609-1.077 12.797-1.001 18.998h-3V482.02h1.999c1.838-1.239 5.706-1.088 9-1.001zm-307.999 2.002l-1.001 6c.805 1.021.354.272 1.001 1.999 1.724.601 3.153.89 6 1.001v-2.002c2.926-4.279-.706-7.067-6-6.998zm61.001 0c-.998 2.229-1.527 2.845-2.002 6h1.001c1.628-1.088 5.858-1.593 7.999-2.002v-1.999c-2.416-1.304-2.833-1.803-6.998-1.999zm85.999 0c-.652 1.874-.952 3.911-1.001 6.998 2.282 1.225 2.253 1.64 6 2.002.715-2.051.995-4.675 1.001-8.002-1.723-.597-3.152-.889-6-.998zm46.001 0c-4.246 6.815-2.921 11.842 1.999 16.999 1.754-.63.971-.193 1.999-1.001 5.343-3.589 3.551-9.128 2.002-15h-2.002c-1.178-.802-1.679-.772-3.998-.998zm18.998 0c-.651 1.874-.952 3.911-.998 6.998 2.28 1.225 2.25 1.64 6 2.002 1.225-2.282 1.637-2.253 1.999-6-.805-1.022-.354-.275-1.001-2.002-1.083-.908-.085.079-.998-.998h-5.002zm20.002 0c-.854 1.459-1.813 2.866-3 3.998v2.002h.998c1.549-1.05 4.085-1.03 7.001-1.001.333-1.001.665-1.999 1.001-3-2.282-1.225-2.253-1.639-6-1.999zm49.999 0c-.995 2.229-1.527 2.845-1.999 6h.998c1.628-1.088 5.861-1.593 8.002-2.002v-1.999c-2.419-1.304-2.834-1.803-7.001-1.999zm-343.001 7.999c-2.918 2.711-4.394 1.454-4.999 7.001 2.28 1.225 2.25 1.637 6 1.999.78-2.241 1.02-5.43 1.001-9h-2.002zm144 0c-2.918 2.711-4.394 1.454-4.999 7.001 2.28 1.225 2.25 1.637 6 1.999.78-2.241 1.02-5.43 1.001-9h-2.002zm-72.998 10.999l-10.001-.998c-1.225 2.28-1.639 2.25-1.999 6h1.999c1.691 1.141 4.896 1.063 7.999.998 1.225-2.28 1.639-2.25 2.002-6zm136.999-.998c-1.225 2.28-1.639 2.25-1.999 6 2.242.777 5.43 1.021 9 .998 1.021-.804.272-.354 1.999-.998.534-1.517.674-1.693 1.001-4.001-1.727-.6-3.153-.889-6-1.001-1.181-.802-1.682-.772-4.001-.998zm75 .998l-10.001-.998c-1.225 2.28-1.637 2.25-1.999 6 2.449.849 6.183 1.039 10.001.998 1.225-2.28 1.637-2.25 1.999-6z"
              />
            </defs>
            <use
              xlink:href="#a"
              overflow="visible"
              fill-rule="evenodd"
              clip-rule="evenodd"
              fill="#FFFFFF"
            />
          </svg>