<svg xmlns="http://www.w3.org/2000/svg" x="0px" y="0px" width="274.589px" height="55.896px" viewBox="0 0 274.589 55.896"><g fill="#126891"><path d="M24.404 1.694c.293.795.648 1.981 1.066 3.56s.879 3.404 1.38 5.474c.503 2.07 1.03 4.318 1.585 6.744.553 2.426 1.108 4.893 1.662 7.402.553 2.51 1.098 4.988 1.631 7.434.533 2.447 1.03 4.717 1.49 6.808.46 2.092.873 3.947 1.239 5.567.366 1.621.654 2.859.863 3.717.459-1.171.998-2.613 1.615-4.328.617-1.715 1.286-3.593 2.008-5.631a704.49 704.49 0 002.258-6.492c.784-2.29 1.579-4.601 2.384-6.932a695.764 695.764 0 014.784-13.394c.752-2.039 1.469-3.91 2.148-5.615a87.029 87.029 0 011.835-4.313l2.572.314c-.376 1.317-.753 2.849-1.129 4.595s-.737 3.639-1.082 5.677a222.589 222.589 0 00-.988 6.431 179.06 179.06 0 00-.816 6.791c-.23 2.279-.413 4.538-.548 6.775-.137 2.237-.205 4.37-.205 6.398 0 3.952.282 6.953.847 9.003.565 2.049 1.443 3.074 2.635 3.074.523 0 1.03-.209 1.522-.628.491-.418 1.014-1.045 1.568-1.882.553-.836 1.15-1.877 1.788-3.121a539.32 539.32 0 002.18-4.313l.314-.659 1.285.974-.313.658a259.598 259.598 0 01-2.807 5.474c-.827 1.558-1.621 2.86-2.385 3.905-.763 1.046-1.526 1.83-2.289 2.353a4.324 4.324 0 01-2.494.784c-1.254 0-2.3-.308-3.137-.925-.837-.617-1.51-1.495-2.023-2.635-.513-1.141-.878-2.525-1.098-4.157-.219-1.631-.329-3.47-.329-5.521 0-2.237.115-4.585.345-7.042.229-2.457.507-4.846.831-7.167.324-2.322.659-4.47 1.004-6.446.345-1.977.643-3.613.894-4.909l-14.147 40.4-2.572-.628c0-.438-.136-1.374-.407-2.807a223.805 223.805 0 00-1.067-5.207 750.55 750.55 0 00-1.49-6.744 876.415 876.415 0 00-1.71-7.419 2046.44 2046.44 0 00-4.642-19.51c.063 1.506.136 3.022.219 4.549.063 1.317.12 2.724.173 4.218.052 1.496.078 2.892.078 4.188 0 3.785-.214 7.141-.643 10.068-.428 2.929-1.009 5.475-1.74 7.639-.732 2.164-1.59 3.988-2.572 5.473-.984 1.485-2.029 2.677-3.137 3.576-1.109.898-2.243 1.547-3.404 1.945-1.16.396-2.295.596-3.403.596s-2.149-.183-3.121-.549a7.793 7.793 0 01-2.541-1.537 7.584 7.584 0 01-1.725-2.321A6.595 6.595 0 010 48.524c0-1.232.204-2.414.612-3.544.408-1.129.972-2.19 1.694-3.184a16.751 16.751 0 012.556-2.776 28.194 28.194 0 013.168-2.384l.941.974a15.161 15.161 0 00-2.195 1.896 12.715 12.715 0 00-1.726 2.259c-.48.806-.857 1.643-1.129 2.509a8.744 8.744 0 00-.407 2.619c0 .816.13 1.579.392 2.29a5.696 5.696 0 001.129 1.882 5.336 5.336 0 001.756 1.286c.68.314 1.448.472 2.306.472.878 0 1.788-.184 2.728-.55.942-.365 1.856-.973 2.745-1.819.889-.848 1.735-1.965 2.541-3.356.804-1.39 1.505-3.104 2.102-5.144.596-2.039 1.071-4.428 1.427-7.168.355-2.739.533-5.897.533-9.473a97.65 97.65 0 00-.079-3.607c-.052-1.38-.125-2.823-.219-4.328a228.587 228.587 0 00-.329-4.533 199.166 199.166 0 00-.392-4.234 67.6 67.6 0 00-.44-3.451c-.156-.993-.309-1.72-.454-2.18l5.144-1.286z"/><path d="M70.263 50.752c.731 0 1.479-.188 2.242-.564.764-.377 1.537-.962 2.321-1.757.784-.795 1.595-1.823 2.431-3.09.836-1.265 1.694-2.774 2.573-4.532l.313-.658 1.287.973-.314.658c-1.129 2.237-2.254 4.15-3.373 5.739-1.118 1.591-2.216 2.887-3.293 3.891s-2.138 1.736-3.183 2.196c-1.046.46-2.05.689-3.011.689-1.36 0-2.573-.283-3.64-.847a8.052 8.052 0 01-2.697-2.307c-.732-.972-1.291-2.101-1.678-3.387a14.021 14.021 0 01-.581-4.062c0-2.26.309-4.313.926-6.164.617-1.852 1.443-3.436 2.478-4.752 1.035-1.318 2.211-2.343 3.529-3.074 1.317-.732 2.686-1.098 4.109-1.098 1.443 0 2.545.366 3.309 1.098.763.731 1.145 1.652 1.145 2.76 0 1.067-.303 2.066-.91 2.996-.607.93-1.427 1.84-2.462 2.729-1.035.889-2.233 1.767-3.592 2.635s-2.791 1.762-4.296 2.681c.145 1.088.396 2.076.752 2.965.355.89.804 1.652 1.349 2.289a5.753 5.753 0 001.882 1.476c.71.345 1.506.517 2.384.517m.972-17.346c0-.836-.225-1.495-.674-1.977a2.173 2.173 0 00-1.647-.721c-.544 0-1.119.193-1.725.58-.607.387-1.161 1.003-1.663 1.85-.502.848-.92 1.931-1.255 3.247-.334 1.318-.501 2.917-.501 4.799v.723c.71-.377 1.5-.873 2.368-1.49.867-.617 1.678-1.302 2.431-2.055s1.385-1.553 1.897-2.399c.513-.847.769-1.699.769-2.557m12.767 1.631h15.401v2.572H84.002zm40.495 6.525c0-.564-.015-1.113-.047-1.647-.031-.532-.068-1.082-.11-1.646a80.073 80.073 0 00-.156-1.804c-.063-.639-.126-1.354-.189-2.149-.857.335-1.767.591-2.728.77-.962.178-2.029.267-3.2.267-1.296 0-2.541-.205-3.732-.612a9.49 9.49 0 01-3.169-1.804c-.92-.794-1.657-1.793-2.211-2.996-.554-1.202-.832-2.608-.832-4.218 0-1.024.121-2.013.362-2.964.239-.952.663-1.95 1.27-2.996.606-1.046 1.416-2.18 2.431-3.404 1.014-1.223 2.294-2.619 3.843-4.187a193.71 193.71 0 015.504-5.333 608.409 608.409 0 017.45-6.837l1.286.972c-.46.627-.868 1.318-1.224 2.07a14.57 14.57 0 00-.909 2.604c-.251.983-.44 2.117-.565 3.403-.125 1.286-.188 2.776-.188 4.47 0 2.53.094 5.097.283 7.7.188 2.604.397 5.15.627 7.639.418-.586.789-1.203 1.114-1.851a22.93 22.93 0 00.862-1.945l1.286.659a27.498 27.498 0 01-1.364 2.823 14.93 14.93 0 01-1.71 2.447c.105 1.066.209 2.043.314 2.933.104.889.193 1.721.267 2.494.072.773.135 1.516.188 2.227.051.711.078 1.433.078 2.164 0 2.259-.204 4.266-.611 6.022-.409 1.757-1.198 3.283-2.369 4.58-1.15 1.317-2.787 2.395-4.909 3.23-2.123.836-4.638 1.255-7.543 1.255-1.8 0-3.514-.251-5.145-.753s-3.064-1.202-4.297-2.101c-1.234-.899-2.217-1.977-2.949-3.231-.731-1.255-1.098-2.646-1.098-4.172 0-1.129.183-2.145.549-3.043a9.017 9.017 0 011.428-2.399 10.393 10.393 0 011.929-1.804c.7-.502 1.385-.92 2.054-1.254a15.202 15.202 0 013.043-1.161l.627 1.286a13.7 13.7 0 00-1.615 1.019 8.519 8.519 0 00-1.678 1.631c-.523.659-.962 1.459-1.318 2.4s-.533 2.05-.533 3.325c0 1.358.229 2.577.69 3.654a7.65 7.65 0 001.929 2.729c.826.743 1.809 1.307 2.949 1.694 1.139.387 2.389.58 3.748.58 1.526 0 2.922-.209 4.187-.627s2.348-1.118 3.247-2.103c.899-.981 1.6-2.289 2.102-3.921.501-1.631.752-3.66.752-6.085m0-35.131a310.734 310.734 0 00-4.328 4.234 82.81 82.81 0 00-3.279 3.451c-.93 1.046-1.709 2.013-2.336 2.901a15.074 15.074 0 00-1.506 2.62 12.036 12.036 0 00-.815 2.603 15.02 15.02 0 00-.251 2.823c0 3.054.679 5.265 2.039 6.634 1.359 1.37 3.241 2.056 5.646 2.056.794 0 1.542-.079 2.243-.236a9.024 9.024 0 001.96-.674 705.938 705.938 0 00-.455-4.344 292.954 292.954 0 01-.424-4.204 119.733 119.733 0 01-.297-3.811 51.268 51.268 0 01-.11-3.136c0-.899.047-1.882.141-2.949a41.74 41.74 0 01.392-3.121 30.21 30.21 0 01.596-2.823c.229-.87.491-1.543.784-2.024m22.333 24.34c-.585 0-1.239.261-1.96.784-.723.522-1.448 1.197-2.181 2.022a25.058 25.058 0 00-2.117 2.776 28.508 28.508 0 00-1.771 3.043c-.063 1.84-.121 3.848-.173 6.022s-.079 4.496-.079 6.964c0 .313-.141.591-.423.831s-.612.438-.988.596c-.377.157-.764.277-1.161.361s-.722.125-.972.125c-.314 0-.606-.095-.879-.282-.271-.188-.407-.606-.407-1.255 0-.313.031-.706.094-1.177.063-.47.141-.977.235-1.521.094-.544.199-1.103.314-1.678.115-.576.225-1.114.329-1.616V31.431c0-.418.006-.748.016-.989.011-.24.047-.423.109-.549.126-.292.345-.522.659-.689a4.614 4.614 0 011.004-.392 5.302 5.302 0 011.035-.173c.335-.021.597-.032.784-.032.355 0 .601.095.737.283.136.188.205.522.205 1.003 0-.063-.047.451-.142 1.538s-.173 2.645-.235 4.673a30.388 30.388 0 012.039-2.823 19.23 19.23 0 012.288-2.384 11.605 11.605 0 012.464-1.662c.847-.418 1.709-.628 2.587-.628 1.568 0 2.719.498 3.45 1.491.732.993 1.099 2.336 1.099 4.03 0 1.066-.068 2.254-.204 3.56a145.397 145.397 0 01-.471 3.984 159.245 159.245 0 00-.471 3.951 33.783 33.783 0 00-.203 3.529c0 1.38.429 2.07 1.285 2.07.272 0 .592-.142.957-.423.366-.282.826-.811 1.38-1.584.555-.774 1.219-1.835 1.992-3.185.773-1.349 1.693-3.09 2.76-5.223l.314-.658 1.286.972-.314.659c-1.254 2.509-2.367 4.569-3.34 6.18s-1.856 2.886-2.65 3.826c-.796.941-1.536 1.596-2.228 1.96-.689.367-1.38.55-2.07.55-.439 0-.879-.063-1.317-.188a2.785 2.785 0 01-1.16-.659c-.335-.313-.606-.736-.815-1.27-.21-.533-.313-1.218-.313-2.055 0-1.255.083-2.667.25-4.234.168-1.569.355-3.137.564-4.705.209-1.569.397-3.048.565-4.439.167-1.39.251-2.524.251-3.402 0-.773-.168-1.396-.502-1.866-.335-.471-.837-.707-1.506-.707m17.158 4.266h15.4v2.572h-15.4zm44.981-6.431v-5.802c0-2.51.079-4.794.235-6.854.156-2.06.507-3.968 1.051-5.725a111.796 111.796 0 01-5.081-.894 556.012 556.012 0 00-5.098-.988c-1.662-.313-3.241-.58-4.736-.799-1.495-.22-2.839-.33-4.031-.33-1.61 0-2.948.131-4.014.392-1.067.262-1.925.612-2.573 1.051-.648.439-1.104.946-1.365 1.521a4.393 4.393 0 00-.392 1.835c0 .649.153 1.245.456 1.788.302.544.736 1.02 1.301 1.427.565.408 1.239.727 2.023.957.783.231 1.656.345 2.618.345 1.067 0 2.013-.12 2.84-.361.825-.24 1.53-.506 2.117-.799a8.744 8.744 0 001.819-1.161l.627 1.349c-.647.481-1.359.909-2.133 1.286-.669.335-1.448.632-2.337.894-.89.261-1.866.392-2.934.392-1.4 0-2.64-.188-3.716-.565-1.078-.376-1.982-.883-2.714-1.521a6.346 6.346 0 01-1.663-2.243 6.718 6.718 0 01-.563-2.729c0-1.024.172-2.018.517-2.98.345-.961.921-1.819 1.726-2.572s1.866-1.353 3.185-1.803c1.317-.45 2.937-.675 4.861-.675 1.776 0 3.56.142 5.348.424 1.788.282 3.556.627 5.302 1.035 1.745.408 3.45.847 5.112 1.317 1.663.471 3.257.894 4.784 1.271.898-1.652 2.018-2.975 3.355-3.968 1.339-.993 2.792-1.491 4.36-1.491.669 0 1.265.11 1.788.33.522.22.962.507 1.317.863.355.355.622.768.801 1.239.177.47.267.967.267 1.489 0 .879-.205 1.637-.612 2.275-.407.638-.968 1.171-1.679 1.599-.711.429-1.547.743-2.509.941-.962.199-1.997.298-3.106.298h-.768c-.261 0-.518-.02-.769-.062a40.68 40.68 0 00-.392 3.497 60.142 60.142 0 00-.141 4.345v10.162h4.201l-.657 1.914h-3.544v7.716c0 1.757-.022 3.289-.064 4.596-.042 1.308-.156 2.468-.345 3.481-.188 1.015-.47 1.925-.847 2.729-.377.806-.899 1.595-1.568 2.368-1.15 1.317-2.75 2.395-4.799 3.23-2.05.836-4.538 1.255-7.465 1.255-1.8 0-3.514-.251-5.145-.753-1.632-.502-3.065-1.202-4.298-2.101-1.234-.899-2.217-1.977-2.949-3.231-.73-1.255-1.097-2.646-1.097-4.172 0-1.129.182-2.145.549-3.043a8.988 8.988 0 011.427-2.399 10.425 10.425 0 011.929-1.804c.701-.502 1.387-.92 2.056-1.254.668-.335 1.274-.597 1.818-.785s.951-.314 1.225-.376l.626 1.286c-.481.251-1.02.591-1.615 1.019a8.573 8.573 0 00-1.678 1.631c-.522.659-.962 1.459-1.318 2.4-.354.941-.533 2.05-.533 3.325 0 1.358.23 2.577.691 3.654a7.648 7.648 0 001.928 2.729c.826.743 1.81 1.307 2.949 1.694 1.14.387 2.389.58 3.749.58 1.526 0 2.922-.209 4.188-.627a7.506 7.506 0 003.245-2.103c.899-.981 1.601-2.289 2.103-3.921.502-1.631.753-3.659.753-6.085V30.521h-6.086l.628-1.914h5.459zm10.288-25.25c-.941 0-1.81.34-2.604 1.019-.795.68-1.454 1.835-1.976 3.466.648.105 1.275.189 1.882.251.606.063 1.181.094 1.726.094.564 0 1.051-.078 1.458-.235.407-.157.737-.361.988-.612a2.53 2.53 0 00.752-1.788c0-.606-.209-1.123-.627-1.552-.418-.429-.952-.643-1.599-.643m14.179 44.134c-.104.168-.257.455-.455.863-.198.406-.45.861-.753 1.363a19.698 19.698 0 01-1.065 1.569c-.408.543-.874 1.034-1.396 1.474s-1.103.806-1.741 1.099-1.344.438-2.117.438c-.606 0-1.234-.126-1.883-.377-.647-.251-1.249-.71-1.803-1.38-.555-.669-1.009-1.584-1.365-2.745-.354-1.16-.532-2.66-.532-4.501 0-1.756.063-3.518.188-5.285.124-1.767.276-3.382.454-4.846.177-1.464.35-2.687.518-3.67.167-.983.293-1.579.376-1.788.083-.188.251-.356.503-.502.251-.146.537-.262.862-.345a7.834 7.834 0 011.003-.188c.347-.042.645-.063.895-.063.334 0 .601.084.8.251.198.167.298.45.298.847 0 .188-.036.559-.11 1.113l-.266 2.022c-.104.796-.215 1.674-.33 2.636s-.225 1.939-.329 2.933-.193 1.976-.266 2.949a35.165 35.165 0 00-.111 2.649c0 2.28.246 3.975.738 5.082.49 1.109 1.302 1.662 2.431 1.662.961 0 1.939-.7 2.933-2.101.993-1.401 1.855-3.44 2.588-6.117.104-1.129.204-2.337.298-3.623s.184-2.509.267-3.67.161-2.201.235-3.121.141-1.578.204-1.976c.063-.293.229-.538.502-.737.271-.199.58-.356.925-.471a6.49 6.49 0 011.741-.329c.354 0 .601.078.737.235.136.157.203.403.203.737 0 .293-.026.853-.077 1.679l-.188 2.886-.236 3.528a892.94 892.94 0 00-.234 3.623c-.074 1.16-.136 2.211-.188 3.152-.053.94-.078 1.652-.078 2.133 0 1.423.078 2.541.234 3.357.158.814.508 1.223 1.051 1.223.397 0 .831-.256 1.302-.769.472-.513.983-1.229 1.537-2.148a55.528 55.528 0 001.805-3.278c.647-1.265 1.349-2.65 2.101-4.155l.314-.659 1.285.972-.313.659a492.857 492.857 0 00-2.651 5.316c-.764 1.559-1.489 2.87-2.18 3.937-.69 1.067-1.391 1.878-2.102 2.432a3.778 3.778 0 01-2.384.831c-.815 0-1.489-.157-2.023-.471-.533-.313-.957-.763-1.271-1.349s-.539-1.297-.674-2.134c-.139-.834-.207-1.786-.207-2.852"/><path d="M252.695 50.313c.376 0 .81-.244 1.301-.736.492-.491 1.02-1.165 1.585-2.023.564-.856 1.16-1.86 1.788-3.011a117.87 117.87 0 001.944-3.733l.313-.658 1.286.973-.314.658a164.084 164.084 0 01-2.964 5.692c-.867 1.579-1.678 2.876-2.431 3.891s-1.469 1.756-2.148 2.227c-.681.47-1.376.706-2.086.706-.941 0-1.752-.308-2.432-.925-.679-.617-1.243-1.652-1.694-3.106-.448-1.453-.783-3.372-1.003-5.756s-.329-5.332-.329-8.845c0-4.978.209-9.248.627-12.814.418-3.565.988-6.493 1.709-8.783.723-2.29 1.559-3.972 2.511-5.05.951-1.077 1.949-1.615 2.996-1.615.627 0 1.153.256 1.584.768.428.513.643 1.438.643 2.776 0 1.046-.084 2.238-.251 3.576a85.839 85.839 0 01-.659 4.297 97.97 97.97 0 01-.972 4.752 184.77 184.77 0 01-1.193 4.894 223.34 223.34 0 01-1.285 4.769 182.746 182.746 0 01-1.286 4.375c.126 2.571.267 4.68.424 6.32.156 1.643.345 2.934.564 3.874.22.941.476 1.596.77 1.96.29.364.625.547 1.002.547m.847-38.613c0-.439-.053-.784-.157-1.035s-.271-.376-.502-.376c-.229 0-.461.324-.689.972-.23.648-.455 1.526-.674 2.635a51.67 51.67 0 00-.597 3.858 140.096 140.096 0 00-.832 9.692 138.908 138.908 0 00-.156 4.957c.503-1.84.967-3.728 1.396-5.661.429-1.934.811-3.811 1.146-5.631.333-1.819.595-3.539.783-5.16.188-1.621.282-3.038.282-4.251"/><path d="M266.371 50.313c.376 0 .81-.244 1.301-.736.492-.491 1.021-1.165 1.585-2.023.564-.856 1.16-1.86 1.788-3.011a117.87 117.87 0 001.944-3.733l.313-.658 1.286.973-.313.658a165.686 165.686 0 01-2.965 5.692c-.867 1.579-1.678 2.876-2.431 3.891s-1.469 1.756-2.147 2.227c-.682.47-1.377.706-2.087.706-.941 0-1.752-.308-2.432-.925-.679-.617-1.243-1.652-1.694-3.106-.448-1.453-.783-3.372-1.003-5.756s-.329-5.332-.329-8.845c0-4.978.209-9.248.628-12.814.418-3.565.987-6.493 1.709-8.783s1.558-3.972 2.51-5.05c.951-1.077 1.95-1.615 2.996-1.615.627 0 1.153.256 1.584.768.428.513.643 1.438.643 2.776 0 1.046-.084 2.238-.251 3.576a85.839 85.839 0 01-.659 4.297 97.97 97.97 0 01-.972 4.752 184.77 184.77 0 01-1.193 4.894 223.34 223.34 0 01-1.285 4.769 182.746 182.746 0 01-1.286 4.375c.126 2.571.267 4.68.424 6.32.157 1.643.345 2.934.564 3.874.22.941.476 1.596.77 1.96.29.364.625.547 1.002.547m.847-38.613c0-.439-.053-.784-.158-1.035-.104-.251-.271-.376-.501-.376-.229 0-.461.324-.689.972-.23.648-.455 1.526-.674 2.635a52.196 52.196 0 00-.597 3.858 140.096 140.096 0 00-.832 9.692 138.908 138.908 0 00-.156 4.957c.503-1.84.967-3.728 1.396-5.661.429-1.934.812-3.811 1.146-5.631.333-1.819.595-3.539.783-5.16.188-1.621.282-3.038.282-4.251"/></g></svg>